<?xml version="1.0" standalone="no"?>
<!DOCTYPE svg PUBLIC "-//W3C//DTD SVG 20010904//EN"
 "http://www.w3.org/TR/2001/REC-SVG-20010904/DTD/svg10.dtd">
<svg version="1.0" xmlns="http://www.w3.org/2000/svg"
 width="1024.000000pt" height="1024.000000pt" viewBox="0 0 1024.000000 1024.000000"
 preserveAspectRatio="xMidYMid meet">
<metadata>
Created by potrace 1.11, written by Peter Selinger 2001-2013
</metadata>
<g transform="translate(0.000000,1024.000000) scale(0.100000,-0.100000)"
fill="#000000" stroke="none">
<path d="M653 8582 c-72 -26 -110 -54 -248 -184 -222 -210 -311 -303 -333
-344 -34 -68 -49 -135 -46 -199 4 -77 20 -128 60 -190 17 -27 216 -235 440
-462 225 -226 780 -785 1234 -1242 454 -457 825 -835 825 -841 0 -6 -369 -382
-820 -836 -1829 -1842 -1676 -1685 -1703 -1747 -45 -102 -49 -211 -11 -302 7
-16 13 -32 13 -35 8 -35 122 -153 396 -410 117 -110 176 -140 288 -147 86 -6
160 11 225 50 30 19 2981 2956 3171 3158 85 90 119 183 109 303 -7 96 -36 158
-110 236 -23 25 -737 740 -1587 1590 -1738 1738 -1597 1609 -1762 1617 -69 3
-100 0 -141 -15z"/>
<path d="M4897 2804 c-132 -41 -241 -164 -264 -299 -5 -27 -8 -183 -8 -345 2
-306 6 -342 49 -426 20 -39 111 -125 156 -148 95 -48 -38 -46 2600 -46 2218 0
2481 2 2535 16 33 9 67 22 76 30 9 8 18 12 21 9 11 -11 117 104 145 156 l28
54 3 363 3 363 -25 54 c-49 108 -126 179 -233 216 -54 18 -110 19 -2547 18
-2163 0 -2497 -2 -2539 -15z"/>
</g>
</svg>
